<svg xmlns="http://www.w3.org/2000/svg" viewBox="0 0 73.99 71.43"><title>icon-return</title><g id="Warstwa_2" data-name="Warstwa 2"><g id="Warstwa_1-2" data-name="Warstwa 1"><path d="M51.41,42.16l-3.25-1.23,3.31-1.53a.78.78,0,0,0,.43-.74.61.61,0,0,0-.43-.61L36.19,32.59a2.55,2.55,0,0,0-1.78.06L14.16,42A20.8,20.8,0,0,1,1,42.59H.78a.8.8,0,0,0-.74.49.6.6,0,0,0,.06.55A.55.55,0,0,0,.47,44l10.19,3.62L1,52.1a.78.78,0,0,0-.43.74.61.61,0,0,0,.43.61l3.31,1.17L1,56.21a.63.63,0,0,0-.43.68.69.69,0,0,0,.43.68l3.31,1.17L1,60.33a.78.78,0,0,0-.43.74.61.61,0,0,0,.43.61l3.31,1.17L1,64.44a.85.85,0,0,0-.43.74.61.61,0,0,0,.43.61l15.22,5.46a2.17,2.17,0,0,0,.86.18,2.34,2.34,0,0,0,1-.25l33.26-15.4a.85.85,0,0,0,.43-.74.61.61,0,0,0-.43-.61l-3.31-1.17,3.31-1.6a.85.85,0,0,0,.43-.74.61.61,0,0,0-.43-.61l-3.31-1.17,3.31-1.6a.85.85,0,0,0,.43-.74.61.61,0,0,0-.43-.61L48.09,45l3.31-1.6a.63.63,0,0,0,.43-.68v-.06A.59.59,0,0,0,51.41,42.16ZM7.28,44.92l1.1-.06a19.15,19.15,0,0,0,6.38-1.47l2.39-1.17,13.93,5-1.1.49a19.35,19.35,0,0,1-7.49,1.41,19.92,19.92,0,0,1-5.65-.8ZM33.06,63,18,69.84a1.16,1.16,0,0,1-.49.12,1.79,1.79,0,0,1-.55-.12L3.35,65l3.07-1.47,9.88,3.62a2.17,2.17,0,0,0,.86.18,3.41,3.41,0,0,0,1.41-.25L33,60.57V63Zm0-4.11L18,65.73a1.16,1.16,0,0,1-.49.12,1.47,1.47,0,0,1-.55-.12L3.35,60.88l3.07-1.47,9.82,3.68a2.17,2.17,0,0,0,.86.18A3.6,3.6,0,0,0,18.51,63L33,56.52v2.39Zm0-4.11L18,61.61a.66.66,0,0,1-.49.12,1.47,1.47,0,0,1-.55-.12L3.35,56.83l3.07-1.47L16.24,59a2.17,2.17,0,0,0,.86.18,3.6,3.6,0,0,0,1.41-.25L33,52.41V54.8Zm0-4.11L18,57.5a1.16,1.16,0,0,1-.49.12,1.47,1.47,0,0,1-.55-.12L3.35,52.65l9.27-4.36,3.8,1.41a20.75,20.75,0,0,0,6.08.86A22.46,22.46,0,0,0,31,49l2-.74v2.39Zm5.52,9.57-4.17,2.15V47.13c0-.25-.49-.61-.8-.68L19.31,41.3l4-1.9,15.28,5.4ZM25,38.54,35,33.94a1,1,0,0,1,.61,0L49.2,38.79,38.95,43.57ZM49.26,55.23,40,59.59V57.13l6.32-3Zm0-4.11L40,55.48V53l6.32-3Zm0-4.11L40,51.37V48.91l6.32-3Zm-9.33.25V44.86l6.44-3,2.88,1Z"/><path d="M52.71,0A21.32,21.32,0,0,0,31.43,21.28c0,.25,0,.49,0,.73l-3.5-3.5a.94.94,0,0,0-1.34,1.34L31.74,25a.93.93,0,0,0,.72.31,1.11,1.11,0,0,0,.72-.31l5.14-5.14A.94.94,0,0,0,37,18.5L33.3,22.19c0-.3,0-.61,0-.91a19.38,19.38,0,1,1,23.46,18.9v2A21.27,21.27,0,0,0,52.71,0Z"/></g></g></svg>