<svg xmlns="http://www.w3.org/2000/svg" viewBox="0 0 68 90"><defs><style>.cls-1{fill:#fdc631;}.cls-2{fill:#0c0c0c;}</style></defs><title>icon-project</title><g id="Warstwa_2" data-name="Warstwa 2"><g id="Warstwa_1-2" data-name="Warstwa 1"><path d="M66.59,22.62,45.38,1.41A5.54,5.54,0,0,0,42,0H4A4,4,0,0,0,0,4V86a4,4,0,0,0,4,4H64a4,4,0,0,0,4-4V26A5.53,5.53,0,0,0,66.59,22.62ZM44,3.89c0-.55.31-.68.7-.29L64.4,23.3c.39.39.25.7-.29.7H46.19A2.2,2.2,0,0,1,44,21.81ZM66,85.81A2.19,2.19,0,0,1,63.8,88H4.2A2.2,2.2,0,0,1,2,85.81V4.19A2.19,2.19,0,0,1,4.2,2H41a1,1,0,0,1,1,1V22a4,4,0,0,0,4,4H65a1,1,0,0,1,1,1Z"/><g id="Warstwa_2-2" data-name="Warstwa 2"><g id="Warstwa_1-2-2" data-name="Warstwa 1-2"><path class="cls-1" d="M38.41,48,40,49.65a.05.05,0,0,0,0,0c0-.55.09-.59.64-.59h.48a.37.37,0,0,1,.41.43V51.1a.66.66,0,0,0,.16.39c.67.73,1.36,1.46,2,2.19l.21.24h-1.3v5.56H40.44V55l-.08,0-2,3.09-2-3.06-.06,0v4.46H34.12V53.93H32.75C32.83,53.82,38.38,48,38.41,48Z"/><path class="cls-2" d="M48.87,59.51c-.29-.06-.59-.11-.87-.2a4,4,0,0,1,.34-7.76,4.11,4.11,0,0,1,4.38,1.54,4,4,0,0,1-2.52,6.33l-.5.1Zm2.4-4.23a1.92,1.92,0,0,0-1-1.64,1.89,1.89,0,0,0-2,0,2.09,2.09,0,0,0-1,2.21,2,2,0,0,0,2.24,1.69l.12,0A2,2,0,0,0,51.27,55.28Z"/><path class="cls-2" d="M27,59.5c-.29-.06-.59-.11-.87-.19a4,4,0,0,1,.31-7.75,4.1,4.1,0,0,1,4.37,1.52,4,4,0,0,1-2.47,6.32l-.5.1Zm.41-6.2a2,2,0,0,0-2.05,2s0,.08,0,.11a2.09,2.09,0,0,0,2,2.18h.06a2,2,0,0,0,2.06-2.16,2.07,2.07,0,0,0-2-2.19h-.1Z"/><path class="cls-2" d="M13.52,59.5v-8h.21c1,0,2.06,0,3.09,0a4.68,4.68,0,0,1,3,1,3.7,3.7,0,0,1,1.3,3.11,3.84,3.84,0,0,1-3.5,3.81,26,26,0,0,1-2.83.11C14.39,59.51,14,59.5,13.52,59.5Zm2.24-2c.43,0,.86,0,1.27,0a1.89,1.89,0,0,0,1.85-1.88,1.91,1.91,0,0,0-1.32-2.06,5.61,5.61,0,0,0-1.8-.13Z"/></g></g></g></g></svg>