<svg xmlns="http://www.w3.org/2000/svg" xmlns:xlink="http://www.w3.org/1999/xlink" viewBox="0 0 65.25 81.25"><defs><style>.cls-1{fill:none;}.cls-2{clip-path:url(#clip-path);}.cls-3{fill:#db0d15;}.cls-4{clip-path:url(#clip-path-2);}.cls-5{fill:#060b14;}</style><clipPath id="clip-path" transform="translate(0 0)"><rect class="cls-1" x="6.98" width="51.29" height="61.72"/></clipPath><clipPath id="clip-path-2" transform="translate(0 0)"><rect class="cls-1" y="67.21" width="65.25" height="14.04"/></clipPath></defs><title>icon-realisation-espiro</title><g id="Warstwa_2" data-name="Warstwa 2"><g id="Warstwa_1-2" data-name="Warstwa 1"><g class="cls-2"><path d="M57.88,49.2h0c-.56-3.09-2.56-7.1-8.92-8.72l-.35-.1c-1.63-.48-6-1.27-6-1.28a4,4,0,0,1-3.41-4V33.38l.1-.11a25.27,25.27,0,0,0,5.9-14.07l0-.26.25-.07c1.7-.5,3.73-1.37,3.73-2.74,0-.91-.9-1.71-2.76-2.45l-.23-.09v-.25a13.63,13.63,0,0,0-27.25,0v.26l-.25.09c-1.85.65-2.75,1.45-2.75,2.45,0,1.33,2,2.22,3.74,2.74l.25.07,0,.26a25.63,25.63,0,0,0,5.91,14l.09.11v1.84a3.93,3.93,0,0,1-3.43,4,57.71,57.71,0,0,0-7.83,1.78,10.45,10.45,0,0,0-7.34,8.31A29.12,29.12,0,0,0,8,61.35H57.33l0-.17a30,30,0,0,0,.51-12M40.53,39.76l.27.13a14.59,14.59,0,0,0,3.06.72,14.91,14.91,0,0,1,2.21.47l.46.17-6,8.49L36.46,45ZM30.27,1.6l.56-.08a12.15,12.15,0,0,1,1.82-.17,12.67,12.67,0,0,1,2.06.21l.31.05V6.73a2.38,2.38,0,0,1-4.75,0ZM17.35,16.46l-.2-.26.23-.23a8.16,8.16,0,0,1,2.87-1.31A12.62,12.62,0,0,1,28.51,2.08l.51-.2V6.73a3.63,3.63,0,0,0,7.25,0V1.89l.5.19c8.11,3,8.31,10.87,8.26,12.56A7.46,7.46,0,0,1,47.91,16l.23.23-.2.26c-.83,1.07-6.26,2.65-15.3,2.65s-14.47-1.58-15.3-2.65m7.77,13.71a25.25,25.25,0,0,1-3.75-10.3l-.05-.51.5.1a59.9,59.9,0,0,0,10.83.89,59.92,59.92,0,0,0,10.83-.89l.5-.1-.06.51c-.69,6.26-5.53,15.73-11.27,15.73-2.59,0-5.26-1.93-7.53-5.43M26,38.67a4.88,4.88,0,0,0,1.3-3.35v-.74l.6.44a8.2,8.2,0,0,0,4.78,1.83,7.84,7.84,0,0,0,4.68-1.73l.55-.4,0,.68a5.5,5.5,0,0,0,1.4,3.38l.21.23-6.89,9.15L25.76,38.9Zm-6.75,2.4a16.17,16.17,0,0,1,2.19-.47,10.85,10.85,0,0,0,3-.76l.3-.26L28.83,45l-4.12,4.69-6-8.49ZM56.42,59.8l-.06.3H49.27v-7H48v7H17.27v-7H16v7h-7L9,59.81a27.84,27.84,0,0,1-.31-10.44,9,9,0,0,1,6.47-7.21s1.49-.4,2-.59l.28-.11,7.2,10.35,5-5.69,3.07,4.17,3.07-4.17,5,5.69,7.14-10.17H48c.07,0,7.42,1,8.67,7.81a29.76,29.76,0,0,1-.3,10.34" transform="translate(0 0)"/><path d="M57.65,61.72h0Z" transform="translate(0 0)"/></g><polygon class="cls-3" points="0 67.21 0 81.25 16.32 81.25 16.32 78.81 2.28 78.84 2.28 75.37 11.53 75.37 11.53 73.09 2.29 73.08 2.29 69.6 30.36 69.61 30.36 73.22 19.45 73.22 19.45 81.25 21.73 81.25 21.73 75.37 32.64 75.36 32.64 67.21 0 67.21"/><g class="cls-4"><path class="cls-5" d="M38.3,75.88a1.48,1.48,0,0,1,0,3h-1v1.48h-.65V75.88Zm0,2.33a.84.84,0,0,0,0-1.68h-1v1.68h1Z" transform="translate(0 0)"/><path class="cls-5" d="M40.91,78.07h.75a.77.77,0,1,0,0-1.54h-1v3.8H40V75.88h1.62a1.38,1.38,0,0,1,1.45,1.42A1.34,1.34,0,0,1,42,78.65l1.4,1.67h-.83l-1.62-2v-.31Z" transform="translate(0 0)"/><path class="cls-5" d="M44,76.49a2.25,2.25,0,0,1,3.21,0,2.29,2.29,0,0,1,0,3.21,2.25,2.25,0,0,1-3.21,0,2.29,2.29,0,0,1,0-3.21m2.75.46a1.64,1.64,0,0,0-1.15-.48,1.6,1.6,0,0,0-1.14.48,1.63,1.63,0,0,0,0,2.3,1.59,1.59,0,0,0,1.14.48A1.63,1.63,0,0,0,46.72,77" transform="translate(0 0)"/><path class="cls-5" d="M49.77,75.88a1.48,1.48,0,0,1,0,3h-1v1.48h-.65V75.88Zm0,2.33a.84.84,0,0,0,0-1.68h-1v1.68h1Z" transform="translate(0 0)"/><polygon class="cls-5" points="52.15 79.68 54.22 79.68 54.22 80.32 51.51 80.32 51.51 75.88 54.21 75.88 54.21 76.53 52.15 76.53 52.15 77.78 54.17 77.78 54.17 78.42 52.15 78.42 52.15 79.68 52.15 79.68"/><path class="cls-5" d="M55.55,78.07h.75a.77.77,0,1,0,0-1.54h-1v3.8h-.64V75.88H56.3a1.38,1.38,0,0,1,1.45,1.42,1.34,1.34,0,0,1-1.15,1.36L58,80.32h-.83l-1.62-2v-.31Z" transform="translate(0 0)"/><polygon class="cls-5" points="59.1 80.33 59.1 76.52 57.75 76.52 57.75 75.87 61.08 75.87 61.08 76.52 59.74 76.52 59.74 80.33 59.1 80.33"/><polygon class="cls-5" points="62.06 75.88 63.28 77.83 64.49 75.88 65.25 75.88 63.6 78.51 63.6 80.32 62.95 80.32 62.95 78.51 61.31 75.88 62.06 75.88 62.06 75.88"/><polygon class="cls-5" points="37.67 73.61 40.72 73.61 40.72 74.56 36.71 74.56 36.71 68.01 40.71 68.01 40.71 68.95 37.67 68.95 37.67 70.8 40.64 70.8 40.64 71.76 37.67 71.76 37.67 73.61 37.67 73.61"/><path class="cls-5" d="M45,69.7a1.26,1.26,0,0,0-1.34-.83,1.56,1.56,0,0,0-1.19.5.86.86,0,0,0-.16.61c0,.67.79.76,1.49.82.9.11,2,.35,2.27,1.4a2.31,2.31,0,0,1,0,.43,2.47,2.47,0,0,1-4.8.22v-.18l1,0v.1c.07.61.81.93,1.41.93s1.47-.39,1.47-1.07a1.06,1.06,0,0,0,0-.22c-.11-.5-.79-.58-1.44-.65-1-.1-2.22-.33-2.32-1.7h0a1.77,1.77,0,0,1,.36-1.25,2.53,2.53,0,0,1,2-.87,2.08,2.08,0,0,1,2.23,1.72Z" transform="translate(0 0)"/><path class="cls-5" d="M49,68a2.19,2.19,0,0,1,0,4.38H47.58v2.18h-1V68Zm0,3.44A1.24,1.24,0,0,0,49,69H47.58v2.48Z" transform="translate(0 0)"/><rect class="cls-5" x="51.82" y="68" width="0.95" height="6.57"/><path class="cls-5" d="M54.89,71.23H56A1.14,1.14,0,1,0,56,69H54.54v5.62H53.6V68H56a2,2,0,0,1,2.14,2.09,2,2,0,0,1-1.7,2l2.07,2.48H57.28l-2.39-2.89Z" transform="translate(0 0)"/><path class="cls-5" d="M59.48,68.91a3.31,3.31,0,0,1,4.73,0,3.37,3.37,0,0,1,0,4.74,3.31,3.31,0,0,1-4.73,0,3.37,3.37,0,0,1,0-4.74m4.06.67a2.41,2.41,0,0,0-1.7-.71,2.35,2.35,0,0,0-1.68.71,2.4,2.4,0,0,0,0,3.39,2.35,2.35,0,0,0,1.68.71,2.41,2.41,0,0,0,1.7-4.1" transform="translate(0 0)"/></g></g></g></svg>