<svg xmlns="http://www.w3.org/2000/svg" viewBox="0 0 61.83 80"><defs><style>.cls-1{fill:#95959e;}</style></defs><title>icon-table</title><g id="Warstwa_2" data-name="Warstwa 2"><g id="Warstwa_1-2" data-name="Warstwa 1"><rect class="cls-1" x="20.98" y="42.33" width="19.52" height="2.33"/><path class="cls-1" d="M60.83,6.08H35.24V4.32A4.33,4.33,0,0,0,30.92,0h-.55A4.33,4.33,0,0,0,26,4.32V6.08H1a1,1,0,0,0-1,1V53.88a1,1,0,0,0,1,1H26V79a1,1,0,0,0,1,1h7.2a1,1,0,0,0,1-1V54.88H60.83a1,1,0,0,0,1-1V7.08A1,1,0,0,0,60.83,6.08ZM28,4.32A2.33,2.33,0,0,1,30.37,2h.55a2.33,2.33,0,0,1,2.32,2.32V6.08H28ZM33.24,78H28V54.88h5.2ZM59.83,52.88H2V8.08H59.83Z"/><rect class="cls-1" x="7.67" y="15.17" width="46" height="2"/><rect class="cls-1" x="7.83" y="33.5" width="46" height="2.17"/><rect class="cls-1" x="7.65" y="23.83" width="46.33" height="2"/></g></g></svg>