<svg xmlns="http://www.w3.org/2000/svg" viewBox="0 0 89.2 89.2"><defs><style>.cls-1{fill:#95959e;}</style></defs><title>icon-pencil</title><g id="Warstwa_2" data-name="Warstwa 2"><g id="Warstwa_1-2" data-name="Warstwa 1"><path class="cls-1" d="M88,22.1a4.1,4.1,0,0,0,0-5.8L72.9,1.2a4.1,4.1,0,0,0-5.8,0l-27,27-16-16.1a1.38,1.38,0,0,0-.4-.3L7.4,5.9c-.1,0-.3-.1-.4-.1A1,1,0,0,0,5.9,6.9a.6.6,0,0,0,.1.4l5.9,16.3c.1.2.1.3.3.4l16,16-3.4,3.4L1.2,67.1a4.1,4.1,0,0,0,0,5.8L16.3,88a4.1,4.1,0,0,0,5.8,0l27-27L68.9,80.8a8.49,8.49,0,1,0,12-12L61,49.1l.3-.3ZM8.8,8.8l12.3,4.5-7.8,8Zm5.6,14.4,8.7-8.9L38.6,29.7l-8.8,8.9ZM79.3,70.5a6.2,6.2,0,0,1-4.4,10.6,6.45,6.45,0,0,1-4.2-1.6h0l-.2-.2-2.9-2.9,8.8-8.8ZM74.8,66,66,74.8,50.6,59.4l8.8-8.8ZM20.5,86.4a1.94,1.94,0,0,1-2.6,0L2.8,71.3A1.54,1.54,0,0,1,2.3,70a1.9,1.9,0,0,1,.5-1.3l1.3-1.3,3.4,3.4.5-.5L4.6,66.9,11,60.5l3.4,3.4.5-.5L11.5,60l6.4-6.4L21.3,57l.5-.5-3.4-3.4,6.4-6.4,3.4,3.4.5-.5-3.4-3.4,6.4-6.4,3.4,3.4.5-.6-3.4-3.4,6.4-6.4L42,36.2l.5-.5-3.4-3.4,6.4-6.4,3.4,3.4.5-.5L46,25.4,52.4,19l3.4,3.4.5-.5-3.4-3.3,6.4-6.4,3.3,3.4.5-.5-3.4-3.4,6.4-6.4,3.4,3.4.5-.5L66.6,4.8l2-2a1.66,1.66,0,0,1,1.3-.5,1.9,1.9,0,0,1,1.3.5L86.3,17.9a2.11,2.11,0,0,1,.5,1.3,1.9,1.9,0,0,1-.5,1.3Z"/></g></g></svg>