<svg xmlns="http://www.w3.org/2000/svg" viewBox="0 0 80 90"><defs><style>.cls-1{fill:#95959e;}</style></defs><title>icon-book</title><g id="Warstwa_2" data-name="Warstwa 2"><g id="Warstwa_1-2" data-name="Warstwa 1"><path class="cls-1" d="M29,.75c-2.48,9.92-5.42,16-9.75,20.29S9.22,28,.88,31c-.61.14-.69.69-.88,1V46a1,1,0,0,0,.22.63L36.17,89.57a1.18,1.18,0,0,0,1.16.41C52,86,64.53,82.74,77,76.63V62.9c.88-.7,1.77-1.41,2.63-2.13a1,1,0,0,0,.09-1.47l-5.53-5.53q1.82-2.06,3.56-4.13a1,1,0,0,0,0-1.28l-37-43c-.6-.52-.91-.26-1.47-.06L36.76,7.82l-6-7.44C29.89-.3,29.67,0,29,.75Zm1.38,2.38,35.38,44C60,59.48,51.59,68,37.35,72.88L2.69,32.45c1.89-.68,3.66-1.36,5.31-2.06L22.22,47.65A1,1,0,0,0,24,46.74l-1.41-5,5,2.16a1,1,0,0,0,1.19-1.56l-13-16a30,30,0,0,0,4.94-3.94C25.07,18.1,28,12.07,30.41,3.13ZM40,7.44,75.71,49C65.12,61.43,52.89,73.64,38,77.79v-3c14.91-5.12,23.9-14.33,29.91-27.36a1,1,0,0,0-.13-1L38,9.38ZM14,27.45l10.6,13-3.22-1.38A1.06,1.06,0,0,0,20,40.27l.69,2.38L9.94,29.58c1.47-.67,2.81-1.38,4.09-2.13ZM2,34.67,36,74.38V86.26L2,45.62Zm70.86,20.6,4.66,4.66C66.05,69.35,52.1,77.77,38,81.76V79.85c13.74-3.64,25.05-13.69,34.85-24.57ZM75,64.47V75.35c-5.9,2.88-19.07,7.6-37,12.38V83.85C51.13,80.24,64,72.9,75,64.47Z"/></g></g></svg>