<svg xmlns="http://www.w3.org/2000/svg" viewBox="0 0 389.58 82.32"><defs><style>.cls-1{fill:#4fa7fe;}.cls-2{fill:#fff;}</style></defs><title>logo-espiro-interior</title><g id="Warstwa_2" data-name="Warstwa 2"><g id="Layer_1" data-name="Layer 1"><polygon class="cls-1" points="114.07 35.23 114.05 82.32 127.4 82.32 127.4 47.87 191.37 47.81 191.37 0 0 0 0 82.32 95.69 82.32 95.69 68.03 13.38 68.21 13.38 47.87 67.62 47.85 67.62 34.47 13.44 34.43 13.44 14.03 178 14.09 178 35.23 114.07 35.23"/><path class="cls-2" d="M238,3.43V8.32H223.14V19.91h13.18v4.83H223.14v12H238v4.89H216.88V3.43Z"/><path class="cls-2" d="M255.88,8.1a7,7,0,0,0-4.56,1.43,5,5,0,0,0-1.76,4.15,4.71,4.71,0,0,0,2.09,4.15,14.36,14.36,0,0,0,5.05,2.09q3,.66,5.93,1.51a10.66,10.66,0,0,1,5.05,3.16,9.41,9.41,0,0,1,2.09,6.54,10.17,10.17,0,0,1-3.57,7.58Q262.63,42,256.64,42a15.78,15.78,0,0,1-9.72-2.8,9.14,9.14,0,0,1-3.74-7.74h6.7a5.85,5.85,0,0,0,1.87,4A7,7,0,0,0,256.59,37a7.27,7.27,0,0,0,5-1.65,5.46,5.46,0,0,0,.71-7.42,6.9,6.9,0,0,0-2.91-1.9,36,36,0,0,0-3.93-1.13q-2.14-.49-4.31-1.15a18.41,18.41,0,0,1-4-1.7,7.91,7.91,0,0,1-2.91-3,9.9,9.9,0,0,1-1.13-4.92,10,10,0,0,1,3.6-8,14,14,0,0,1,9.34-3q5.74,0,9.17,2.64a10.09,10.09,0,0,1,3.82,7.64h-6.92a5.54,5.54,0,0,0-1.87-3.68A6.4,6.4,0,0,0,255.88,8.1Z"/><path class="cls-2" d="M298.72,6.7a10.42,10.42,0,0,1,3.52,8,11.05,11.05,0,0,1-3.32,8.13q-3.32,3.32-10.19,3.32H281.8V41.66h-6.26V3.48h13.18Q295.2,3.48,298.72,6.7ZM281.8,21.28h6.92q3.57,0,5.33-1.7a6.31,6.31,0,0,0,1.76-4.75,6.31,6.31,0,0,0-1.76-4.75,7.4,7.4,0,0,0-5.33-1.7H281.8Z"/><path class="cls-2" d="M306.58,41.66V3.48h6.26V41.66Z"/><path class="cls-2" d="M325.69,26.17V41.66h-6.26V3.48h13.18q6.48,0,10,3.21a10.57,10.57,0,0,1,3.52,8.16,11.16,11.16,0,0,1-2.33,6.92,11.26,11.26,0,0,1-7.17,4l10.11,15.88h-7.64l-9.56-15.49Zm0-17.8V21.28h6.92q3.57,0,5.33-1.7a6.31,6.31,0,0,0,1.76-4.75,6.31,6.31,0,0,0-1.76-4.75,7.4,7.4,0,0,0-5.33-1.7Z"/><path class="cls-2" d="M369.94,42a19.1,19.1,0,0,1-13.87-5.52,18.74,18.74,0,0,1-5.66-14,18.74,18.74,0,0,1,5.66-14,20.15,20.15,0,0,1,27.71,0,18.79,18.79,0,0,1,5.63,14,18.78,18.78,0,0,1-5.63,14A19,19,0,0,1,369.94,42Zm0-5.66a12.46,12.46,0,0,0,9.42-3.82A13.94,13.94,0,0,0,383,22.52a13.84,13.84,0,0,0-3.65-10,13.6,13.6,0,0,0-18.84,0,13.84,13.84,0,0,0-3.65,10,13.93,13.93,0,0,0,3.65,10.05A12.46,12.46,0,0,0,369.91,36.39Z"/><path class="cls-2" d="M217.07,76.6V50.53h4.27V76.6h-4.27Z"/><path class="cls-2" d="M246,50.49h4.27V76.6H246L233.12,57.13V76.6h-4.27V50.49h4.27L246,69.92Z"/><path class="cls-2" d="M256.41,53.87V50.53H274.6v3.34h-6.94V76.6h-4.27V53.87Z"/><path class="cls-2" d="M295.19,50.49v3.34H285.06v7.91h9V65h-9v8.21h10.13V76.6h-14.4V50.49Z"/><path class="cls-2" d="M306.59,66V76.6h-4.27V50.53h9q4.43,0,6.83,2.19a7.22,7.22,0,0,1,2.4,5.57,7.37,7.37,0,0,1-6.49,7.46L321,76.6h-5.21L309.21,66h-2.62Zm0-12.15v8.81h4.73A5,5,0,0,0,315,61.52,5,5,0,0,0,315,55a5.05,5.05,0,0,0-3.64-1.16h-4.73Z"/><path class="cls-2" d="M327.89,76.6V50.53h4.27V76.6h-4.27Z"/><path class="cls-2" d="M351.58,76.86a13,13,0,0,1-9.47-3.77,12.79,12.79,0,0,1-3.86-9.56A12.79,12.79,0,0,1,342.11,54,13.76,13.76,0,0,1,361,54a12.82,12.82,0,0,1,3.84,9.56A12.82,12.82,0,0,1,361,73.09,13,13,0,0,1,351.58,76.86Zm0-3.86A8.51,8.51,0,0,0,358,70.39a9.51,9.51,0,0,0,2.49-6.86A9.45,9.45,0,0,0,358,56.68a9.29,9.29,0,0,0-12.87,0,9.45,9.45,0,0,0-2.49,6.84,9.51,9.51,0,0,0,2.49,6.86A8.51,8.51,0,0,0,351.56,73Z"/><path class="cls-2" d="M375.22,66V76.6h-4.27V50.53h9q4.43,0,6.83,2.19a7.22,7.22,0,0,1,2.4,5.57,7.37,7.37,0,0,1-6.49,7.46l6.9,10.84h-5.21L377.85,66h-2.62Zm0-12.15v8.81h4.73a5,5,0,0,0,3.64-1.16,5,5,0,0,0,0-6.49,5.05,5.05,0,0,0-3.64-1.16h-4.73Z"/></g></g></svg>