<svg xmlns="http://www.w3.org/2000/svg" viewBox="0 0 382.62 82.32"><defs><style>.cls-1{fill:#db0d15;}.cls-2{fill:#fff;}</style></defs><title>logo-espiro-property</title><g id="Warstwa_2" data-name="Warstwa 2"><g id="Layer_1" data-name="Layer 1"><polygon class="cls-1" points="114.07 35.23 114.05 82.32 127.4 82.32 127.4 47.87 191.37 47.81 191.37 0 0 0 0 82.32 95.69 82.32 95.69 68.03 13.38 68.21 13.38 47.87 67.62 47.85 67.62 34.47 13.44 34.43 13.44 14.03 178 14.09 178 35.23 114.07 35.23"/><path class="cls-2" d="M224.56,50.82c5.63,0,8.45,4.36,8.45,8.72s-2.83,8.68-8.45,8.68h-5.74v8.68H215V50.82Zm0,13.67a4.94,4.94,0,0,0,0-9.87h-5.74v9.87h5.74Z"/><path class="cls-2" d="M239.87,63.67h4.39a4.53,4.53,0,1,0,0-9.05h-5.77V76.89h-3.73V50.82h9.5a8.07,8.07,0,0,1,8.49,8.31,7.85,7.85,0,0,1-6.74,8l8.23,9.8h-4.88l-9.5-11.43V63.67Z"/><path class="cls-2" d="M257.84,54.43a13.18,13.18,0,0,1,18.81,0,13.4,13.4,0,0,1,0,18.85,13.18,13.18,0,0,1-18.81,0,13.4,13.4,0,0,1,0-18.85ZM274,57.11a9.59,9.59,0,0,0-6.74-2.83,9.35,9.35,0,0,0-6.67,2.83,9.53,9.53,0,0,0,0,13.48,9.35,9.35,0,0,0,6.67,2.83A9.59,9.59,0,0,0,274,57.11Z"/><path class="cls-2" d="M291.8,50.82c5.63,0,8.45,4.36,8.45,8.72s-2.83,8.68-8.45,8.68h-5.74v8.68h-3.8V50.82Zm0,13.67a4.94,4.94,0,0,0,0-9.87h-5.74v9.87h5.74Z"/><path class="cls-2" d="M305.8,73.13h12.11v3.76H302v-26h15.87v3.76H305.8V62h11.81v3.8H305.8v7.38Z"/><path class="cls-2" d="M325.7,63.67h4.39a4.53,4.53,0,1,0,0-9.05h-5.77V76.89H320.6V50.82h9.5a8.07,8.07,0,0,1,8.49,8.31,7.85,7.85,0,0,1-6.74,8l8.23,9.8H335.2l-9.5-11.43V63.67Z"/><path class="cls-2" d="M346.51,76.95V54.56h-7.9v-3.8h19.52v3.8h-7.86V76.95Z"/><path class="cls-2" d="M363.92,50.84,371,62.27l7.11-11.44h4.47l-9.68,15.42V76.87h-3.8V66.26l-9.65-15.42h4.43Z"/><path class="cls-2" d="M220.88,37.53h17.85v5.55H215.28V4.68h23.4v5.55h-17.8V21.05H238.3v5.6H220.88V37.53Z"/><path class="cls-2" d="M263.84,14.57c-.77-3.46-4.51-4.94-7.86-4.89-2.58.05-5.44.93-7,2.91a5,5,0,0,0-.93,3.57c.27,4,4.62,4.45,8.73,4.84,5.27.66,11.81,2,13.3,8.19a13.57,13.57,0,0,1,.27,2.53c0,7.42-7.36,11.7-14.29,11.7-5.93,0-13.13-3.52-13.84-10.38l-.05-1,5.6-.11.05.82v-.22c.38,3.57,4.72,5.44,8.29,5.44,4.12,0,8.63-2.31,8.63-6.26a6.2,6.2,0,0,0-.16-1.32c-.66-2.91-4.61-3.41-8.46-3.79-6-.6-13-1.92-13.62-9.94v.06a10.4,10.4,0,0,1,2.09-7.31c2.58-3.35,7.2-5.11,11.65-5.11,5.93,0,12.08,3.08,13.08,10.11Z"/><path class="cls-2" d="M287.43,4.63c8.3,0,12.47,6.43,12.47,12.86s-4.17,12.8-12.47,12.8H279v12.8h-5.6V4.63Zm0,20.16c4.67,0,7-3.63,7-7.25s-2.31-7.31-7-7.31H279V24.79Z"/><rect class="cls-2" x="303.87" y="4.63" width="5.55" height="38.54"/><path class="cls-2" d="M321.84,23.58h6.48a6.56,6.56,0,0,0,7-6.7,6.54,6.54,0,0,0-7-6.65h-8.51V43.17h-5.5V4.63h14c8.35,0,12.53,6.15,12.53,12.25a11.58,11.58,0,0,1-9.95,11.76L343,43.17h-7.2l-14-17V23.58Z"/><path class="cls-2" d="M348.76,10a19.43,19.43,0,0,1,27.74,0,19.77,19.77,0,0,1,0,27.8,19.43,19.43,0,0,1-27.74,0,19.77,19.77,0,0,1,0-27.8Zm23.79,4a14.15,14.15,0,0,0-9.95-4.18,13.79,13.79,0,0,0-9.83,4.18,14.06,14.06,0,0,0,0,19.89A13.79,13.79,0,0,0,362.6,38a14.14,14.14,0,0,0,9.95-24.06Z"/></g></g></svg>