<svg xmlns="http://www.w3.org/2000/svg" viewBox="0 0 391.35 82.32"><defs><style>.cls-1{fill:#468602;}.cls-2{fill:#fff;}</style></defs><title>logo-espiro-exterior</title><g id="Warstwa_2" data-name="Warstwa 2"><g id="Layer_1" data-name="Layer 1"><polygon class="cls-1" points="114.07 35.23 114.05 82.32 127.4 82.32 127.4 47.87 191.37 47.81 191.37 0 0 0 0 82.32 95.69 82.32 95.69 68.03 13.38 68.21 13.38 47.87 67.62 47.85 67.62 34.47 13.44 34.43 13.44 14.03 178 14.09 178 35.23 114.07 35.23"/><path class="cls-2" d="M238.16,3.49V8.42H223.21V20.09H236.5V25H223.21V37.08h14.94V42H216.91V3.49Z"/><path class="cls-2" d="M256.2,8.19a7.06,7.06,0,0,0-4.59,1.44,5.07,5.07,0,0,0-1.77,4.18,4.75,4.75,0,0,0,2.1,4.18,14.48,14.48,0,0,0,5.09,2.1q3,.66,6,1.52a10.74,10.74,0,0,1,5.09,3.18,9.48,9.48,0,0,1,2.1,6.59,10.25,10.25,0,0,1-3.6,7.64Q263,42.4,257,42.4a15.9,15.9,0,0,1-9.8-2.82,9.21,9.21,0,0,1-3.76-7.8h6.75a5.88,5.88,0,0,0,1.88,4,7.06,7.06,0,0,0,4.87,1.49A7.31,7.31,0,0,0,262,35.65a5.5,5.5,0,0,0,.72-7.47,7,7,0,0,0-2.93-1.91,36.55,36.55,0,0,0-4-1.13q-2.16-.5-4.34-1.16a18.51,18.51,0,0,1-4-1.72,8,8,0,0,1-2.93-3.07,10,10,0,0,1-1.13-5A10.1,10.1,0,0,1,247,6.12,14,14,0,0,1,256.45,3q5.78,0,9.24,2.66a10.17,10.17,0,0,1,3.85,7.69h-7a5.58,5.58,0,0,0-1.88-3.71A6.45,6.45,0,0,0,256.2,8.19Z"/><path class="cls-2" d="M299.37,6.78a10.5,10.5,0,0,1,3.54,8.08,11.14,11.14,0,0,1-3.35,8.19q-3.35,3.35-10.27,3.35h-7V42H276V3.55H289.3Q295.83,3.55,299.37,6.78Zm-17,14.69h7q3.6,0,5.37-1.72A6.36,6.36,0,0,0,296.44,15a6.36,6.36,0,0,0-1.77-4.79q-1.77-1.71-5.37-1.72h-7Z"/><path class="cls-2" d="M307.28,42V3.55h6.31V42Z"/><path class="cls-2" d="M326.54,26.4V42h-6.31V3.55h13.28q6.53,0,10.07,3.24A10.65,10.65,0,0,1,347.13,15a11.24,11.24,0,0,1-2.35,7,11.34,11.34,0,0,1-7.22,4l10.18,16H340L330.42,26.4Zm0-17.93v13h7q3.6,0,5.37-1.72A6.36,6.36,0,0,0,340.66,15a6.36,6.36,0,0,0-1.77-4.79q-1.77-1.71-5.37-1.72Z"/><path class="cls-2" d="M371.12,42.4a19.25,19.25,0,0,1-14-5.56,18.88,18.88,0,0,1-5.7-14.11,18.88,18.88,0,0,1,5.7-14.11,20.3,20.3,0,0,1,27.92,0,18.92,18.92,0,0,1,5.67,14.11,18.93,18.93,0,0,1-5.67,14.11A19.16,19.16,0,0,1,371.12,42.4Zm0-5.7a12.55,12.55,0,0,0,9.49-3.85,14,14,0,0,0,3.68-10.13,13.94,13.94,0,0,0-3.68-10.1,13.71,13.71,0,0,0-19,0,13.94,13.94,0,0,0-3.68,10.1,14,14,0,0,0,3.68,10.13A12.55,12.55,0,0,0,371.09,36.7Z"/><path class="cls-2" d="M231.33,52.21v3.38H221.09v8h9.1v3.34h-9.1v8.31h10.24v3.38H216.77V52.21Z"/><path class="cls-2" d="M257.81,52.25l-8.23,13.2,8.19,13.16h-4.85l-6-9.56-5.58,9.56h-4.85l8.19-13.16-8.19-13.2h4.85l6,9.6,5.61-9.6Z"/><path class="cls-2" d="M262,55.63V52.25h18.4v3.38h-7v23H269v-23Z"/><path class="cls-2" d="M300.13,52.21v3.38H289.89v8H299v3.34h-9.1v8.31h10.24v3.38H285.57V52.21Z"/><path class="cls-2" d="M310.6,67.92v10.7h-4.32V52.25h9.1q4.47,0,6.9,2.22a7.3,7.3,0,0,1,2.43,5.63,7.45,7.45,0,0,1-6.56,7.55l7,11h-5.27l-6.6-10.7Zm0-12.29v8.91h4.78a5.1,5.1,0,0,0,3.68-1.18,5,5,0,0,0,0-6.56,5.11,5.11,0,0,0-3.68-1.18Z"/><path class="cls-2" d="M331.08,78.61V52.25h4.32V78.61Z"/><path class="cls-2" d="M354,78.88a13.19,13.19,0,0,1-9.58-3.81,12.93,12.93,0,0,1-3.91-9.67,12.94,12.94,0,0,1,3.91-9.67,13.91,13.91,0,0,1,19.13,0,13,13,0,0,1,3.89,9.67,13,13,0,0,1-3.89,9.67A13.13,13.13,0,0,1,354,78.88ZM354,75a8.6,8.6,0,0,0,6.5-2.64A9.62,9.62,0,0,0,363,65.39a9.56,9.56,0,0,0-2.52-6.92,9.39,9.39,0,0,0-13,0,9.56,9.56,0,0,0-2.52,6.92,9.62,9.62,0,0,0,2.52,6.94A8.6,8.6,0,0,0,354,75Z"/><path class="cls-2" d="M376.83,67.92v10.7H372.5V52.25h9.1q4.47,0,6.9,2.22a7.3,7.3,0,0,1,2.43,5.63,7.45,7.45,0,0,1-6.56,7.55l7,11h-5.27l-6.6-10.7Zm0-12.29v8.91h4.78a5.1,5.1,0,0,0,3.68-1.18,5,5,0,0,0,0-6.56,5.11,5.11,0,0,0-3.68-1.18Z"/></g></g></svg>