<svg xmlns="http://www.w3.org/2000/svg" viewBox="0 0 97.77 86.95"><defs><style>.cls-1{fill:#fdc630;}</style></defs><title>icon-truck_1</title><g id="Warstwa_2" data-name="Warstwa 2"><g id="Warstwa_1-2" data-name="Warstwa 1"><path class="cls-1" d="M93.55,36l-6.29-3.24L82.32,19.3a7.94,7.94,0,0,0-7.4-5.18H62.64V2.5A2.5,2.5,0,0,0,60.14,0H14.4a2.5,2.5,0,0,0-2.48,2.5V8.7a2.5,2.5,0,1,0,5,0V5H57.64V54.41H16.92V50.7a2.5,2.5,0,0,0-5,0v25a2.5,2.5,0,0,0,2.5,2.5h9.24a11.29,11.29,0,0,0,22,0H63.92a11.29,11.29,0,0,0,22-.06,2.5,2.5,0,0,0,.55.06h8.8a2.5,2.5,0,0,0,2.5-2.5V43A7.88,7.88,0,0,0,93.55,36ZM62.64,19.12H74.92A2.92,2.92,0,0,1,77.65,21l5.27,14.34a2.5,2.5,0,0,0,1.2,1.36l7.15,3.68A2.9,2.9,0,0,1,92.85,43V54.41H62.64ZM34.64,82a6.3,6.3,0,1,1,6.3-6.3,6.3,6.3,0,0,1-6.3,6.3Zm40.31,0a6.3,6.3,0,1,1,6.3-6.3,6.3,6.3,0,0,1-6.3,6.3h0Zm17.88-8.8h-6.3a2.5,2.5,0,0,0-.55.06,11.29,11.29,0,0,0-22-.06H45.66a11.29,11.29,0,0,0-22,0H16.92V59.41H92.84ZM2.5,21.32a2.5,2.5,0,0,1,0-5H24.09a2.5,2.5,0,0,1,0,5ZM26.59,29.7a2.5,2.5,0,0,1-2.5,2.5H6.5a2.5,2.5,0,0,1,0-5H24.09A2.5,2.5,0,0,1,26.59,29.7Zm0,10.88a2.5,2.5,0,0,1-2.5,2.5H10.5a2.5,2.5,0,0,1,0-5H24.09A2.5,2.5,0,0,1,26.59,40.58Z"/></g></g></svg>