<svg xmlns="http://www.w3.org/2000/svg" viewBox="0 0 89.9 89.8"><defs><style>.cls-1{fill:#fff;}</style></defs><title>icon-sliders-white_1</title><g id="Warstwa_2" data-name="Warstwa 2"><g id="Warstwa_1-2" data-name="Warstwa 1"><path class="cls-1" d="M69.9,5.2V48.7a14.94,14.94,0,0,0,0,28.2v7.9a5,5,0,1,0,10,0V77a14.94,14.94,0,0,0,0-28.2V5.3a5,5,0,0,0-5-5A4.87,4.87,0,0,0,69.9,5.2Zm10,57.7a5,5,0,1,1-5-5A5,5,0,0,1,79.9,62.9Z"/><path class="cls-1" d="M20.1,84.8V77a15,15,0,0,0,0-28.2V5.1a5,5,0,0,0-10,0V48.7a15,15,0,0,0,0,28.3v7.8a5,5,0,0,0,10,0ZM10,62.9a5,5,0,1,1,5,5A5,5,0,0,1,10,62.9Z"/><path class="cls-1" d="M40.1,5.2v7.6a15,15,0,0,0,0,28.2V84.8a5,5,0,1,0,10,0V41A14.94,14.94,0,0,0,60.2,26.8,15.13,15.13,0,0,0,50.1,12.6V5a5,5,0,0,0-5-5A5.12,5.12,0,0,0,40.1,5.2ZM50.2,26.9a5,5,0,1,1-5-5A5,5,0,0,1,50.2,26.9Z"/></g></g></svg>