<svg xmlns="http://www.w3.org/2000/svg" viewBox="0 0 92 60"><defs><style>.cls-1{fill:#fdc630;}</style></defs><title>icon-bon</title><g id="Warstwa_2" data-name="Warstwa 2"><g id="Warstwa_1-2" data-name="Warstwa 1"><path class="cls-1" d="M88,0H4A4,4,0,0,0,0,4V18.69a4.1,4.1,0,0,0,2.77,3.81,8,8,0,0,1,0,15A4.1,4.1,0,0,0,0,41.31V56a4,4,0,0,0,4,4H88a4,4,0,0,0,4-4V4A4,4,0,0,0,88,0Zm0,56H30V52a2,2,0,0,0-4,0v4H4V41.35a.44.44,0,0,1,.16-.09A12,12,0,0,0,12,30,12,12,0,0,0,4.16,18.74.43.43,0,0,1,4,18.65V4H26V8a2,2,0,0,0,4,0V4H88Z"/><path class="cls-1" d="M28,38a2,2,0,0,0-2,2v4a2,2,0,0,0,4,0V40A2,2,0,0,0,28,38Z"/><path class="cls-1" d="M28,26a2,2,0,0,0-2,2v4a2,2,0,0,0,4,0V28A2,2,0,0,0,28,26Z"/><path class="cls-1" d="M28,14a2,2,0,0,0-2,2v4a2,2,0,0,0,4,0V16A2,2,0,0,0,28,14Z"/><path class="cls-1" d="M53,27a7,7,0,1,0-7-7A7,7,0,0,0,53,27Zm0-10a3,3,0,1,1-3,3A3,3,0,0,1,53,17Z"/><path class="cls-1" d="M68,33a7,7,0,1,0,7,7A7,7,0,0,0,68,33Zm0,10a3,3,0,1,1,3-3A3,3,0,0,1,68,43Z"/><path class="cls-1" d="M46.72,46.54a2,2,0,0,0,2.82-.26l25-30a2,2,0,1,0-3.07-2.56l-25,30A2,2,0,0,0,46.72,46.54Z"/></g></g></svg>