<svg xmlns="http://www.w3.org/2000/svg" viewBox="0 0 49 58"><defs><style>.cls-1{fill:#fff;}</style></defs><title>icon-share-white</title><g id="Warstwa_2" data-name="Warstwa 2"><g id="Warstwa_1-2" data-name="Warstwa 1"><path class="cls-1" d="M39.5,39a9.48,9.48,0,0,0-5.8,2L18.5,32.6a10.07,10.07,0,0,0,.5-3.1,10.59,10.59,0,0,0-.5-3.1l16-8.9a9.93,9.93,0,0,0,5,1.4A9.56,9.56,0,0,0,49,9.4a9.5,9.5,0,0,0-19,.1,8.68,8.68,0,0,0,1,4.2L15.7,22.3A9.14,9.14,0,0,0,9.5,20a9.5,9.5,0,1,0,0,19,9.33,9.33,0,0,0,6.2-2.3l15,8.3a10.39,10.39,0,0,0-.7,3.5A9.5,9.5,0,1,0,39.5,39Z"/></g></g></svg>