<?xml version="1.0" standalone="no"?>
<!DOCTYPE svg PUBLIC "-//W3C//DTD SVG 20010904//EN"
 "http://www.w3.org/TR/2001/REC-SVG-20010904/DTD/svg10.dtd">
<svg version="1.0" xmlns="http://www.w3.org/2000/svg"
 width="300.000000pt" height="300.000000pt" viewBox="0 0 300.000000 300.000000"
 preserveAspectRatio="xMidYMid meet">
<metadata>
Created by potrace 1.11, written by Peter Selinger 2001-2013
</metadata>
<g transform="translate(0.000000,300.000000) scale(0.100000,-0.100000)"
fill="#000000" stroke="none">
<path d="M1350 2829 c-85 -89 -180 -187 -210 -219 -30 -32 -131 -138 -225
-235 -93 -98 -183 -191 -199 -209 -32 -33 -319 -336 -452 -476 -139 -146 -224
-238 -224 -244 0 -2 71 -4 158 -4 86 0 165 -1 175 -1 16 -1 17 -42 17 -721 l0
-720 283 0 284 0 -1 564 c-1 311 2 575 5 588 4 19 20 1 97 -117 50 -77 96
-147 101 -155 12 -17 149 -227 260 -398 l74 -113 81 123 c45 68 153 234 241
368 209 320 199 305 210 303 6 -2 11 -220 12 -575 1 -315 2 -576 2 -580 1 -5
132 -8 291 -8 l290 0 0 725 0 725 169 2 170 3 -41 45 c-22 25 -98 106 -169
180 -70 74 -146 155 -169 180 -23 25 -81 87 -129 138 -47 52 -94 108 -103 125
-14 27 -17 69 -18 276 -1 277 -6 304 -62 319 -45 11 -257 7 -290 -6 -28 -12
-48 -59 -48 -114 0 -16 -4 -28 -9 -28 -4 0 -75 71 -157 157 -197 207 -251 263
-256 263 -2 0 -73 -72 -158 -161z"/>
</g>
</svg>
