<svg xmlns="http://www.w3.org/2000/svg" viewBox="0 0 67.15 99"><defs><style>.cls-1{fill:#95959e;}</style></defs><title>icon-notes</title><g id="Warstwa_2" data-name="Warstwa 2"><g id="Warstwa_1-2" data-name="Warstwa 1"><path class="cls-1" d="M66.15,5.8H62.51V4.48a1,1,0,0,0-1-1H50.81V1a1,1,0,0,0-2,0V3.48H41.07V1a1,1,0,0,0-2,0V3.48H31.79V1a1,1,0,0,0-2,0V3.48H22V1a1,1,0,0,0-2,0V3.48H12.78V1a1,1,0,0,0-2,0V3.48H1a1,1,0,0,0-1,1V93.36a1,1,0,0,0,1,1H2.32V98a1,1,0,0,0,1,1H66.15a1,1,0,0,0,1-1V6.8A1,1,0,0,0,66.15,5.8ZM2,92.36V5.48h8.78V7.09a2.31,2.31,0,1,0,2,.08V5.48H20V7.19a2.32,2.32,0,1,0,2-.12V5.48h7.74V7.07a2.3,2.3,0,1,0,2,.12V5.48h7.28V7.17a2.3,2.3,0,1,0,2-.08V5.48h7.74V7.05a2.31,2.31,0,1,0,3.13,2.16,2.28,2.28,0,0,0-1.13-2V5.48h9.7V92.36ZM65.15,97H4.32V94.36H61.51a1,1,0,0,0,1-1V7.8h2.64Z"/><path class="cls-1" d="M51.08,37.13H11.44a1,1,0,1,1,0-2H51.08a1,1,0,0,1,0,2Z"/><path class="cls-1" d="M51.08,52.44H11.44a1,1,0,1,1,0-2H51.08a1,1,0,0,1,0,2Z"/><path class="cls-1" d="M51.08,59.86H11.44a1,1,0,0,1,0-2H51.08a1,1,0,0,1,0,2Z"/><path class="cls-1" d="M51.08,21.82H11.44a1,1,0,0,1,0-2H51.08a1,1,0,0,1,0,2Z"/><path class="cls-1" d="M51.08,29.24H11.44a1,1,0,0,1,0-2H51.08a1,1,0,0,1,0,2Z"/><path class="cls-1" d="M51.08,44.55H11.44a1,1,0,0,1,0-2H51.08a1,1,0,0,1,0,2Z"/><path class="cls-1" d="M51.08,75.17H11.44a1,1,0,1,1,0-2H51.08a1,1,0,0,1,0,2Z"/><path class="cls-1" d="M51.08,82.59H11.44a1,1,0,1,1,0-2H51.08a1,1,0,0,1,0,2Z"/><path class="cls-1" d="M51.08,67.28H11.44a1,1,0,1,1,0-2H51.08a1,1,0,0,1,0,2Z"/></g></g></svg>