<svg xmlns="http://www.w3.org/2000/svg" viewBox="0 0 499.2 131.04"><defs><style>.cls-1{fill:#fff;}</style></defs><title>logo-jaaqob</title><g id="Warstwa_2" data-name="Warstwa 2"><g id="Warstwa_1-2" data-name="Warstwa 1"><path class="cls-1" d="M140.9,31.3h16.4V77.7a22.17,22.17,0,0,1-3,11.5,19.79,19.79,0,0,1-8.4,7.8,25.4,25.4,0,0,1-12.1,2.8c-7.4,0-13.2-1.8-17.3-5.6s-6.2-8.9-6.2-15.7h16.5c0,3.1.5,5.3,1.6,6.7s2.9,2.1,5.4,2.1a6.19,6.19,0,0,0,5.3-2.5,11.88,11.88,0,0,0,1.9-7Z"/><path class="cls-1" d="M202,87.1H179.5l-3.9,12.7H158l25.2-68.6h15.2l25.3,68.6H206ZM183.4,74.4h14.7l-7.4-23.7Z"/><path class="cls-1" d="M267.8,87.1H245.3l-3.9,12.7H223.8l25.1-68.6h15.2l25.4,68.6H271.8ZM249.2,74.4h14.7l-7.4-23.7Z"/><path class="cls-1" d="M339.2,86.2c-5.1.3-9.6,3.3-14.5,4a13.77,13.77,0,0,1-11.1-3.7c.8,4,3,9.6,6.5,12,3,2,7.4,1.2,10.6.2,2.5-.8,4.5-2.3,7.2-2.8a14.32,14.32,0,0,1,6.5.3,16.69,16.69,0,0,1,6.2,3.2C347.9,90.1,344.1,85.8,339.2,86.2Z"/><path class="cls-1" d="M304.2,69.4c-.1-.8,0-7.4,0-7.4.5-12.1,4.7-18.2,12.8-18.2a10.56,10.56,0,0,1,9.5,5.2c2.2,3.4,3.3,8.5,3.3,15.1v3.1c-.1,7.3-2.7,13.9-4.3,17.6,4.7-.9,9-3.5,13.8-3.8a7.43,7.43,0,0,1,4.4,1.1,61.3,61.3,0,0,0,2.6-15.2V63.8a39.07,39.07,0,0,0-3.7-17.1,27.47,27.47,0,0,0-10.3-11.5,28.41,28.41,0,0,0-15.1-4,29.19,29.19,0,0,0-15.3,4.1,26.47,26.47,0,0,0-10.3,11.6A39.63,39.63,0,0,0,288,64.2V68a37,37,0,0,0,3.9,16.7,26.66,26.66,0,0,0,10.3,11.2,24.36,24.36,0,0,0,13.7,3.8C309.2,96.8,305.2,84.8,304.2,69.4Z"/><path class="cls-1" d="M411.4,66.9a39.63,39.63,0,0,1-3.6,17.3,26.47,26.47,0,0,1-10.3,11.6,30.69,30.69,0,0,1-30.3.2,26.66,26.66,0,0,1-10.3-11.2A37.37,37.37,0,0,1,353,68.1V64.3A39.63,39.63,0,0,1,356.6,47a26.47,26.47,0,0,1,10.3-11.6,29.19,29.19,0,0,1,15.3-4.1,28.17,28.17,0,0,1,15.1,4,26.83,26.83,0,0,1,10.3,11.5,37.71,37.71,0,0,1,3.7,17.1v3ZM395,64.1c0-6.6-1.1-11.7-3.3-15.1a10.77,10.77,0,0,0-9.5-5.2c-8.1,0-12.3,6.1-12.8,18.2v4.9c0,6.5,1.1,11.6,3.3,15.1a10.75,10.75,0,0,0,9.7,5.3,10.41,10.41,0,0,0,9.4-5.2c2.2-3.5,3.3-8.4,3.3-14.9V64.1Z"/><path class="cls-1" d="M418.2,99.8V31.2h24.5c8.8,0,15.4,2,20,5.2s6.9,7.9,6.9,14a16.34,16.34,0,0,1-2.4,9,14,14,0,0,1-7.2,5.5,14.29,14.29,0,0,1,8.2,5.2,15.46,15.46,0,0,1,2.9,9.4c0,6.7-2.1,11.7-6.3,15.1s-10.5,5.1-18.8,5.1H418.2Zm16.5-29V87.1h10.8a10.4,10.4,0,0,0,6.8-2,7.19,7.19,0,0,0,2.4-5.7c0-5.7-2.8-8.5-8.5-8.6Zm0-10.8h8.6c3.6,0,6.2-.7,7.7-2a7.16,7.16,0,0,0,2.3-5.7c0-2.9-.8-5-2.5-6.2s-4.3-1.9-8-1.9h-8.1Z"/><path class="cls-1" d="M480.8,40.4a9.2,9.2,0,1,1,18.4,0A9.57,9.57,0,0,1,498,45a9,9,0,0,1-3.3,3.4,9.15,9.15,0,0,1-9.4,0,9.24,9.24,0,0,1-3.4-3.4A10.39,10.39,0,0,1,480.8,40.4Zm1.2,0a8.07,8.07,0,1,0,1.1-4A8,8,0,0,0,482,40.4Zm11.8-2.2a3.1,3.1,0,0,1-.5,1.7,2.49,2.49,0,0,1-1.5,1.1l2.9,4.9h-2.1l-2.5-4.4h-1.7v4.4h-1.8v-11h3.2a4.68,4.68,0,0,1,3,.8A3,3,0,0,1,493.8,38.2ZM488.4,40h1.3a2.54,2.54,0,0,0,1.6-.5,1.61,1.61,0,0,0,.6-1.3,1.58,1.58,0,0,0-.5-1.3,2.5,2.5,0,0,0-1.7-.4h-1.3Z"/><path class="cls-1" d="M124.2,13.3c.1-.3.2-.5.3-.8v-.1a2.77,2.77,0,0,0,.1-.9V10.4a7,7,0,0,0-3.3-4.5.1.1,0,0,1-.1-.1c-.2-.1-.3-.2-.5-.3s-.3-.2-.4-.3a5.94,5.94,0,0,1-.8-.4h-.1l-1.2-.6a14.27,14.27,0,0,0-2.2-.8c-.7-.2-1.5-.5-2.2-.7l-2.2-.6c-.8-.2-1.5-.3-2.3-.5L107,1.2,104.7.9,102.4.6a17.85,17.85,0,0,0-2.3-.2L95.5.1C94,0,92.4,0,90.9,0h0V.3a90.43,90.43,0,0,1,9.1,1,44,44,0,0,1,8.8,2.4,11.82,11.82,0,0,1,3.7,2.4,6.57,6.57,0,0,1,1.2,1.7,3.55,3.55,0,0,1,.2,1v.6l-.1.5a7.5,7.5,0,0,1-2.2,3.7,16,16,0,0,1-3.5,2.8,47.32,47.32,0,0,1-8,4.3c-2.8,1.2-5.6,2.3-8.5,3.3a166.63,166.63,0,0,1-17.5,4.7c-3,.6-6,1.2-9,1.7s-6,1-9.1,1.4c-1.5.2-3,.4-4.5.5s-3,.3-4.5.4-3,.3-4.6.4l-4.6.3c-1.5.1-3,.1-4.6.1H28.6c-3,0-6.1-.2-9.1-.4a66,66,0,0,1-8.9-1.4,21.64,21.64,0,0,1-7.9-3.3L0,26.4l.8,3.2a7.82,7.82,0,0,0,2.7,4.1,15.77,15.77,0,0,0,3.9,2.4,41.62,41.62,0,0,0,8.3,2.5,87.78,87.78,0,0,0,16.9,1.5,198.75,198.75,0,0,0,33.6-2.8c5.5-.9,11.1-2,16.5-3.4S93.6,31,98.9,29.1a96.1,96.1,0,0,0,15.4-6.8,40.59,40.59,0,0,0,6.9-4.8,12.88,12.88,0,0,0,1.6-1.7v-.1a3,3,0,0,0,.5-.7c.1-.2.2-.3.3-.5a.22.22,0,0,1,.2-.2.1.1,0,0,1,.1-.1,4.88,4.88,0,0,0,.3-.7Z"/><path class="cls-1" d="M99.6,54.6A4.42,4.42,0,0,0,99,53a7.71,7.71,0,0,0-2.3-2.1,28.14,28.14,0,0,0-5.6-2.5,5.5,5.5,0,0,1,1.5,1.9,5.16,5.16,0,0,1,.2,1.1,3.58,3.58,0,0,1-.4,1.1,8.35,8.35,0,0,1-3.9,2.7A42.55,42.55,0,0,1,79,57.5a115.8,115.8,0,0,1-19.5.9c-1.6,0-3.2-.1-4.9-.2s-3.2-.2-4.9-.4-3.2-.3-4.9-.6-3.2-.5-4.8-.8-3.2-.6-4.8-1-3.1-.8-4.6-1.3a33.83,33.83,0,0,1-4.4-1.8,8.24,8.24,0,0,1-3.1-2.6l-.9-1.8-1,1.6a4.78,4.78,0,0,0-1,1.7,3.54,3.54,0,0,0-.3,1.1v.5a1.09,1.09,0,0,0,.1.5,5.94,5.94,0,0,0,2.2,3.2,19.88,19.88,0,0,0,5.7,3.1,70.77,70.77,0,0,0,12,3.2,99.14,99.14,0,0,0,12.2,1.5c4.1.3,8.2.5,12.2.4s8.2-.2,12.2-.6a82.54,82.54,0,0,0,12.1-2,28.38,28.38,0,0,0,5.8-2,14.28,14.28,0,0,0,2.7-1.5,5.7,5.7,0,0,0,2.2-2.4A3,3,0,0,0,99.6,54.6Z"/><path class="cls-1" d="M75.1,78.3c-.3-1.4-1.4-2.1-2.4-2.8.1,1.1-.9,1.8-1.8,2.1a13.79,13.79,0,0,1-2.9.8,30.82,30.82,0,0,1-6.1.3,81.31,81.31,0,0,1-12.1-1.2q-3-.45-6-1.2c-2-.5-3.9-1-5.8-1.6a53.66,53.66,0,0,1-5.6-2.1,14.81,14.81,0,0,1-2.5-1.4,5,5,0,0,1-1.8-1.7L27.3,68l-1.1,1.2a4.44,4.44,0,0,0-.8,1.1,1.85,1.85,0,0,0-.2.7v.7a3.86,3.86,0,0,0,1.1,2.4,11.66,11.66,0,0,0,3.2,2.4,47,47,0,0,0,7,2.9,63.77,63.77,0,0,0,7.2,1.9c2.4.5,4.8.9,7.3,1.2a65.73,65.73,0,0,0,14.7.3,23.76,23.76,0,0,0,3.7-.6A16.91,16.91,0,0,0,73,81a5.72,5.72,0,0,0,1.6-1.1A1.59,1.59,0,0,0,75.1,78.3Z"/><path class="cls-1" d="M62.4,96.5a4.64,4.64,0,0,0-1.6-1.8.9.9,0,0,1-.1.5,1.77,1.77,0,0,1-.7.7c-.1.1-.3.1-.4.2a11.63,11.63,0,0,1-1.8.4,16.12,16.12,0,0,1-3.8-.1,49.07,49.07,0,0,1-7.5-1.3,12.09,12.09,0,0,1-1.8-.5c-.6-.2-1.3-.3-1.8-.5L41,93.4l-1.8-.7L37.5,92l-1.6-.8-1.5-.9-.6-.5c-.1-.2-.3-.3-.4-.5l-1.2-1.2-.8,1c-.2.3-.5.5-.6.8l-.1.3-.1.1v.1h0v.9a1.42,1.42,0,0,0,.2.6c.1.3.3.5.4.8a7.11,7.11,0,0,0,2,1.9,26.38,26.38,0,0,0,4.4,2.3,35.33,35.33,0,0,0,4.6,1.5c.8.2,1.6.4,2.3.6s1.6.3,2.4.5l2.4.3a19.42,19.42,0,0,0,2.4.2,38.44,38.44,0,0,0,4.8,0,20,20,0,0,0,2.4-.4,9,9,0,0,0,2.3-.8,2.84,2.84,0,0,0,1-.9,1.45,1.45,0,0,0,.2-.7A.85.85,0,0,0,62.4,96.5Z"/><path class="cls-1" d="M59.1,108.6a1.34,1.34,0,0,1-.8.7,2,2,0,0,1-1.1.3,16.35,16.35,0,0,1-2.2.2,22.82,22.82,0,0,1-4.5-.4,4.33,4.33,0,0,1-.5-.1l-.6-.1c-.4-.1-.8-.2-1.1-.3l-2.1-.6a16.67,16.67,0,0,1-2-.8,5.58,5.58,0,0,1-.8-.5c-.3-.2-.4-.4-.6-.5l-1.3-1.2-.8,1.4a2.5,2.5,0,0,0-.4,1.3,3.46,3.46,0,0,0,.3,1.2,3.78,3.78,0,0,0,1.2,1.5,5.51,5.51,0,0,0,1.4.9,14.67,14.67,0,0,0,1.4.6,15.68,15.68,0,0,0,2.9.8,7.72,7.72,0,0,0,1.5.2c.5,0,1,.1,1.5.1H52a7.57,7.57,0,0,0,1.5-.1,13.56,13.56,0,0,0,2.9-.6,3.51,3.51,0,0,0,1.4-.6,3.81,3.81,0,0,0,1.3-.9,1.72,1.72,0,0,0,.6-1.5C59.8,109.4,59.4,108.9,59.1,108.6Z"/><path class="cls-1" d="M64.5,121.5c0-.2-.1-.2-.1-.3a1.33,1.33,0,0,0-.3-.5,2.36,2.36,0,0,0-.9-.6c-.2.2-.3.4-.5.5l-.6.3c-.2.1-.4.1-.6.2a1.27,1.27,0,0,1-.6.1c-.2,0-.4.1-.7.1a1.63,1.63,0,0,1-.7,0,5.7,5.7,0,0,1-1.3-.1h-.6a1.7,1.7,0,0,1-.7-.1l-1.2-.3c-.4-.1-.8-.3-1.1-.4a1.38,1.38,0,0,1-.4-.3c-.2-.1-.2-.2-.3-.3l-1.3-1-.6,1.1c-.1.3-.3.5-.4.8s-.1.3-.1.5v.1h0v.1h0v.1a3.18,3.18,0,0,0,.3.9,1.79,1.79,0,0,0,.5.7,5.11,5.11,0,0,0,2.2,1.3,17.42,17.42,0,0,0,2.2.5h2.2a5.16,5.16,0,0,0,1.1-.2l1.1-.3a7.22,7.22,0,0,0,2-.9,6.47,6.47,0,0,0,.9-.8,1.61,1.61,0,0,0,.5-1.1Z"/><path class="cls-1" d="M69.9,128.4a4.58,4.58,0,0,1-2.8,1,5.44,5.44,0,0,1-2.7-.3,1,1,0,0,0-.4.8c.1.8,1.7,1.3,3.5,1.1s3.3-1,3.2-1.8C70.7,128.9,70.4,128.6,69.9,128.4Z"/><path class="cls-1" d="M47.1,1.7c-11.5,1.8-22,4.7-29.8,8.2S5.3,17.4,5.8,20.8a5.23,5.23,0,0,0,.6,1.6l.9-.3C6.8,15.6,26.7,7.2,51.7,3.4A155.76,155.76,0,0,1,77.2,1.5V.5C69.1-.4,58.1,0,47.1,1.7Z"/><path class="cls-1" d="M46.2,8.9a96,96,0,0,0-24.5,6.7c-6.6,3-9.9,6.2-9.5,9.1v.1l.5-.1-.5.1h1c1.6-5.2,17.5-11.4,36.3-14.3A124.89,124.89,0,0,1,72.4,9l.1-1C65.5,7.1,55.9,7.4,46.2,8.9Z"/><path class="cls-1" d="M69.2,15.2c-1.6-.1-3.3-.1-4.9-.1-10.8,0-20,1.7-23.9,4.4l.5.9c5.6-2.1,15.2-3.3,26.6-3.3,2.4,0,4.9.1,7.4.2,2.9.1,5.8.3,8.6.6l.1-1A91.63,91.63,0,0,0,69.2,15.2Z"/></g></g></svg>