<svg xmlns="http://www.w3.org/2000/svg" viewBox="0 0 129.49 37.28"><defs><style>.cls-1{fill:#fdc631;}.cls-2{fill:#fff;}</style></defs><title>logo-domo</title><g id="Warstwa_2" data-name="Warstwa 2"><g id="Warstwa_1-2" data-name="Warstwa 1"><path class="cls-1" d="M80.63,0l5.09,5.33c.06,0,.13-.08.13-.11.12-1.77.29-1.92,2.07-1.92.52,0,1,0,1.56,0A1.2,1.2,0,0,1,90.82,4.7c0,1.78,0,3.56,0,5.33a2.14,2.14,0,0,0,.51,1.27c2.18,2.38,4.4,4.72,6.61,7.08.18.2.35.4.68.77H94.42v18H87.2V22.73l-.26-.11-6.52,10-6.49-9.92-.19.06V37.21h-7v-18H62.28C62.56,18.86,80.52,0,80.63,0Z"/><path class="cls-2" d="M114.51,37.28c-.94-.21-1.91-.36-2.83-.64a13,13,0,0,1,1.1-25.13c5.68-1.11,10.65.27,14.19,5A13,13,0,0,1,118.82,37l-1.62.31Zm7.78-13.7A6.23,6.23,0,0,0,119,18.26a6.13,6.13,0,0,0-6.33,0c-2.35,1.31-3.5,4-3.08,7.15a6.42,6.42,0,0,0,7.65,5.4C120.32,30.17,122.27,27.62,122.29,23.58Z"/><path class="cls-2" d="M43.73,37.26c-.95-.21-1.91-.36-2.83-.63a12.94,12.94,0,0,1,1-25.1c5.63-1.11,10.57.23,14.14,4.93a13,13,0,0,1-8,20.48l-1.61.32Zm1.33-20.07a6.64,6.64,0,0,0-6.64,7,6.76,6.76,0,0,0,6.63,7.08c3.84,0,6.66-2.94,6.66-7A6.71,6.71,0,0,0,45.06,17.18Z"/><path class="cls-2" d="M0,37.26v-26c.25,0,.46,0,.67,0,3.34,0,6.67-.05,10,0A15.17,15.17,0,0,1,20.5,14.5a12,12,0,0,1,4.2,10.06C24.51,31.42,19.85,36,13.35,36.9a84.09,84.09,0,0,1-9.16.35C2.83,37.29,1.46,37.26,0,37.26Zm7.24-6.52c1.4,0,2.77.1,4.11,0,3.6-.31,5.7-2.5,6-6.08A6.18,6.18,0,0,0,13.08,18c-1.91-.66-3.87-.39-5.84-.42Z"/></g></g></svg>