<svg xmlns="http://www.w3.org/2000/svg" xmlns:xlink="http://www.w3.org/1999/xlink" viewBox="0 0 382.62 158.16"><defs><style>.cls-1{fill:none;}.cls-2{fill:#db0d15;}.cls-3{clip-path:url(#clip-path);}.cls-4{fill:#fff;}</style><clipPath id="clip-path"><rect class="cls-1" width="382.62" height="158.16"/></clipPath></defs><title>logo-espiro-property-budujemy-jakosc</title><g id="Warstwa_2" data-name="Warstwa 2"><g id="Warstwa_1-2" data-name="Warstwa 1"><polygon class="cls-2" points="0 0 0 82.32 95.69 82.32 95.69 68.03 13.38 68.21 13.38 47.87 67.62 47.85 67.62 34.47 13.44 34.43 13.44 14.03 178 14.09 178 35.23 114.07 35.23 114.05 82.32 127.4 82.32 127.4 47.87 191.37 47.81 191.37 0 0 0"/><g class="cls-3"><path class="cls-4" d="M224.56,50.82c5.63,0,8.45,4.36,8.45,8.72s-2.83,8.68-8.45,8.68h-5.74v8.68H215V50.82Zm0,13.67a4.94,4.94,0,0,0,0-9.87h-5.74v9.87Z"/><path class="cls-4" d="M239.87,63.67h4.39a4.53,4.53,0,1,0,0-9.05h-5.77V76.89h-3.73V50.82h9.5a8.07,8.07,0,0,1,8.49,8.31,7.85,7.85,0,0,1-6.74,8l8.23,9.8h-4.88l-9.5-11.43Z"/><path class="cls-4" d="M257.84,54.43a13.18,13.18,0,0,1,18.81,0,13.4,13.4,0,0,1,0,18.85,13.18,13.18,0,0,1-18.81,0,13.4,13.4,0,0,1,0-18.85M274,57.11a9.59,9.59,0,0,0-6.74-2.83,9.35,9.35,0,0,0-6.67,2.83,9.53,9.53,0,0,0,0,13.48,9.35,9.35,0,0,0,6.67,2.83A9.59,9.59,0,0,0,274,57.11"/><path class="cls-4" d="M291.8,50.82c5.63,0,8.45,4.36,8.45,8.72s-2.83,8.68-8.45,8.68h-5.74v8.68h-3.8V50.82Zm0,13.67a4.94,4.94,0,0,0,0-9.87h-5.74v9.87Z"/><polygon class="cls-4" points="305.8 73.13 317.91 73.13 317.91 76.89 302 76.89 302 50.85 317.87 50.85 317.87 54.62 305.8 54.62 305.8 61.95 317.61 61.95 317.61 65.75 305.8 65.75 305.8 73.13"/><path class="cls-4" d="M325.7,63.67h4.39a4.53,4.53,0,1,0,0-9.05h-5.77V76.89H320.6V50.82h9.5a8.07,8.07,0,0,1,8.49,8.31,7.85,7.85,0,0,1-6.74,8l8.23,9.8H335.2l-9.5-11.43Z"/><polygon class="cls-4" points="346.51 76.95 346.51 54.56 338.62 54.56 338.62 50.76 358.13 50.76 358.13 54.56 350.28 54.56 350.28 76.95 346.51 76.95"/><polygon class="cls-4" points="363.92 50.84 371.03 62.27 378.15 50.84 382.62 50.84 372.93 66.26 372.93 76.87 369.13 76.87 369.13 66.26 359.49 50.84 363.92 50.84"/><polygon class="cls-4" points="220.88 37.53 238.74 37.53 238.74 43.08 215.28 43.08 215.28 4.68 238.68 4.68 238.68 10.23 220.88 10.23 220.88 21.05 238.3 21.05 238.3 26.66 220.88 26.66 220.88 37.53"/><path class="cls-4" d="M263.84,14.57c-.77-3.46-4.51-4.94-7.86-4.89-2.58.06-5.44.93-7,2.91a5,5,0,0,0-.93,3.57c.28,4,4.62,4.45,8.74,4.84,5.27.66,11.81,2,13.29,8.19a13.56,13.56,0,0,1,.28,2.53c0,7.42-7.36,11.7-14.29,11.7-5.93,0-13.13-3.51-13.84-10.38l-.06-1,5.61-.11.05.82v-.22c.38,3.57,4.72,5.44,8.29,5.44,4.12,0,8.63-2.31,8.63-6.26a6.21,6.21,0,0,0-.16-1.32c-.66-2.91-4.61-3.41-8.46-3.79-6-.6-13-1.92-13.62-9.94v.06a10.4,10.4,0,0,1,2.09-7.31c2.58-3.35,7.2-5.11,11.65-5.11,5.93,0,12.09,3.08,13.07,10.11Z"/><path class="cls-4" d="M287.43,4.63c8.3,0,12.47,6.43,12.47,12.86s-4.17,12.8-12.47,12.8H279v12.8h-5.6V4.63Zm0,20.16c4.67,0,7-3.63,7-7.25s-2.31-7.31-7-7.31H279V24.79Z"/><rect class="cls-4" x="303.87" y="4.63" width="5.55" height="38.54"/><path class="cls-4" d="M321.84,23.58h6.48a6.56,6.56,0,0,0,7-6.7,6.54,6.54,0,0,0-7-6.65h-8.51V43.17h-5.49V4.63h14c8.35,0,12.53,6.15,12.53,12.25a11.58,11.58,0,0,1-9.95,11.76L343,43.17h-7.2l-14-17Z"/><path class="cls-4" d="M348.76,10a19.43,19.43,0,0,1,27.74,0,19.77,19.77,0,0,1,0,27.8,19.43,19.43,0,0,1-27.74,0,19.77,19.77,0,0,1,0-27.8m23.79,4a14.15,14.15,0,0,0-9.94-4.17,13.79,13.79,0,0,0-9.83,4.17,14.06,14.06,0,0,0,0,19.89A13.79,13.79,0,0,0,362.61,38a14.14,14.14,0,0,0,9.94-24.06"/><path class="cls-4" d="M81.66,110.13a2.36,2.36,0,0,1,1.21,1.7l3-.46.51,0,1.33-.27a2.63,2.63,0,0,0,1.19-.1l1.46.09.5-.12,2.32.29.69-.3a6.65,6.65,0,0,1,1.92,1.28,19.21,19.21,0,0,1-8.77,10.18q13-.87,10.36,7.84-5.31,7.92-15.68,9.12a5,5,0,0,1-2.28,2,4.62,4.62,0,0,1-1.08-1.36,6.75,6.75,0,0,1-2.43-1.14,2.73,2.73,0,0,1,2.52-3.17v-2.62l.2-.47.1-1.66.19-.61.2-.35a9.73,9.73,0,0,1,0-2.14,4.15,4.15,0,0,1,.24-1.3q-2.37.2-2.22-2.09a2.42,2.42,0,0,1,2.43-1.17l.22-1.15a5,5,0,0,1,.32-2.78,6.81,6.81,0,0,1,.13-2.12l.08-1.66.19-.64q-4.59-.59-7.22,4.67-2.7.53-2.86-2.29a21.94,21.94,0,0,1,10-5,2.36,2.36,0,0,0,.23-1.47,2.75,2.75,0,0,0,1.06-.75m8.59,14.47a8.45,8.45,0,0,1-3.49.14l-1,.43H83.57a11,11,0,0,1-2.2.87l-.32,5.24-.2.49a3.27,3.27,0,0,1-.11,1.49l.16.33-.26,1.44A5.65,5.65,0,0,1,82,137.14l.36-.16a16,16,0,0,0,12.39-7.17q2.1-4.63-4.51-5.21M89.12,113a2.8,2.8,0,0,1-1.67,0l-.18.32a8,8,0,0,0-4.87,1,24.72,24.72,0,0,1-.24,4.09l-.07,1.34-.22.47.14.53a8.19,8.19,0,0,0-.12,2.29,21.93,21.93,0,0,1,3.27-2l.33-.14,2.09-1.71a13.57,13.57,0,0,0,4.6-4.66l.7-.78a6.6,6.6,0,0,0-3.75-.87"/><path class="cls-4" d="M109.39,126.85a2.31,2.31,0,0,1,1.57,1,5,5,0,0,1-.69,2.09q.5,5.76,5.79,2.7.77-.15.81.75a9.64,9.64,0,0,1-6,2.43l-.41-.49a10.27,10.27,0,0,1-1.62-2.12l-.13-.26.11-.25-.39-.1q-3.23,6-7.45,3.9a4.92,4.92,0,0,0-.95,1.72l-.26.13-.48.8-.26.28a1,1,0,0,1,0,.75q-3.19.28.44-5.29a2.71,2.71,0,0,0,.07-1.41l.08-.9.1-1.17a4.63,4.63,0,0,1,.94-1.84.57.57,0,0,1,0-.51,3.14,3.14,0,0,1,1.41-.59,4.66,4.66,0,0,1,1.46,1.11,5.13,5.13,0,0,1-.45,1.43,12.12,12.12,0,0,1-.46,1.69l-.57,1.46q1.78,2.36,3.43-1.06a8.63,8.63,0,0,0,3-5.52,4,4,0,0,1,.87-.69"/><path class="cls-4" d="M133.7,117a2,2,0,0,1,1.82,2.26,2.43,2.43,0,0,1-.94,1.3,9.92,9.92,0,0,1-1.75,3.64l-.13.35a7.23,7.23,0,0,1-1.37,2.22,10.24,10.24,0,0,1-2,2.88,5.38,5.38,0,0,0-.5,1.89l-.29.18.18.77a10.92,10.92,0,0,0,1.27,6.19,5.44,5.44,0,0,0,1.88.24,4,4,0,0,0,1.27-1,12.08,12.08,0,0,0,2.39-2.14l1.23-1.29.87-.81q1.61-1,.84.74A10.52,10.52,0,0,1,137,137a4.8,4.8,0,0,1-1.27,1.15l-.27.5a14.76,14.76,0,0,1-2.53,1.66l-.28.33-1,0q-5.31,1.48-5.2-6.49a16.43,16.43,0,0,1-8.58,3.61l-1.46-.55a3.59,3.59,0,0,1-.8-1.84,3.7,3.7,0,0,1-.65-1.53l-.31-.3.54-.36a3.72,3.72,0,0,1,.26-1.39l1.51-1.64.84-.81a2.63,2.63,0,0,0,1-1l.71-.34a13.81,13.81,0,0,1,2.14-1.64l.82-.64a8.83,8.83,0,0,0,1.72-.73,3.29,3.29,0,0,0,1.72-.19l.44,0a6.07,6.07,0,0,0,1.49.72,9.7,9.7,0,0,0,1.73-4l1.76-2.74.42-.31a1.91,1.91,0,0,0,.26-.67Zm-9.17,9.88a18.62,18.62,0,0,0-7.15,5.78,3.12,3.12,0,0,1,1.08,2,13.68,13.68,0,0,0,6.4-3.23q4.35-3.46-.33-4.53m5.92-2.14q1.21-2.38,2.17-4t-.2-.1a13.11,13.11,0,0,0-2,4.08"/><path class="cls-4" d="M147.36,125.3a2.32,2.32,0,0,1,1.57,1,5,5,0,0,1-.69,2.09q.5,5.76,5.8,2.7.77-.15.81.74a9.62,9.62,0,0,1-6,2.43l-.41-.49a10.26,10.26,0,0,1-1.62-2.12l-.13-.26.11-.25-.39-.1q-3.23,6-7.45,3.9a4.92,4.92,0,0,0-1,1.72l-.26.13-.48.8-.26.28a1,1,0,0,1,0,.75q-3.2.28.44-5.29a2.72,2.72,0,0,0,.07-1.41l.08-.9.1-1.17a4.66,4.66,0,0,1,.95-1.84.57.57,0,0,1,0-.51,3.16,3.16,0,0,1,1.41-.59,4.7,4.7,0,0,1,1.46,1.11,5.15,5.15,0,0,1-.45,1.43,12.09,12.09,0,0,1-.46,1.69l-.57,1.46q1.77,2.36,3.43-1.06a8.65,8.65,0,0,0,3-5.52,4.07,4.07,0,0,1,.87-.69"/><path class="cls-4" d="M156.5,127.15l1.6-.07.34.62a5.16,5.16,0,0,1-1.07,2.26,9.77,9.77,0,0,0-.45,1.94l-.09.2-.3.33a3.68,3.68,0,0,1-.37,1.72,11.58,11.58,0,0,1-.33,1.91l-.07.63-.09.73-.24,1.81,0,.41-.07.54-.16,1.49-.07.54-.07.64-.26,1.47a7.73,7.73,0,0,0-.24,1.81l-.37,1.59-.07.76-.06.83a2.13,2.13,0,0,0-.18,1l-.2.42,0,.41-.18.32a3.46,3.46,0,0,1-.59,1.6l-.16.86q-4.2,6-6.7-4a14.8,14.8,0,0,0,.09-2.63,12.52,12.52,0,0,0,.45-2l.29-.55,1.69-5,.51-.65.8-1.3,1.14-.14a5.31,5.31,0,0,1-.42,2.13V140a5.69,5.69,0,0,0-.86,2,5.84,5.84,0,0,0-.48,1.28l-.3.33-.27,1.18-.21.32a3.62,3.62,0,0,1-.26,1.4l-.07.73-.11.32a4.05,4.05,0,0,1-.15,1.17,16.84,16.84,0,0,0,.76,3.13l0,.41a5.27,5.27,0,0,0,1.43,1.74,9.68,9.68,0,0,0,1.85-4.09l.18-.22a14,14,0,0,1,.52-2.74l.1-.64,0-.44.21-.32.08-.42.15-1.71a4.6,4.6,0,0,0,.14-1.37l.09-.64c0-.42.08-.72.11-.9l.09-.59a6.13,6.13,0,0,1,.13-.64,10,10,0,0,0,0-1.48,3.18,3.18,0,0,0,.18-1l.19-.74,0-.63.8-3.63a4.14,4.14,0,0,1,.46-1.28l.24-1.81.29-.52,0-.63Zm2.82-10.73,2,2.13a12.11,12.11,0,0,0-.45,2.13l-.07.63-.1.42c-1,.12-1.46-.73-1.47-2.56a1.75,1.75,0,0,1-.78-1.35,1.84,1.84,0,0,1,.89-1.4m.1,0,1.74,1.6a1.54,1.54,0,0,0-1.74-1.6"/><path class="cls-4" d="M167.68,120.21a8.08,8.08,0,0,0,2.27.2l.87.38a8.53,8.53,0,0,1,.49,2A25.79,25.79,0,0,1,161,132.61a3,3,0,0,0,1.48,1.76,3.65,3.65,0,0,0,3-.27l.3.14,2.19-1.21.42-.31.83-.45.4-.31,1.36-1.17a15.17,15.17,0,0,0,1.91-1.34,7,7,0,0,1,1.46-1.15q1.26-.69,1,.49l-1.11,1.48a9.84,9.84,0,0,1-2.47,2l-1.65,1.33a1.17,1.17,0,0,1-.55.29,5.85,5.85,0,0,0-.94.74,4.94,4.94,0,0,0-1.95,1.08,4.67,4.67,0,0,0-2.06.64l-2.55.11-.71-.24q-6.83-5.35,3.62-14.95a2.13,2.13,0,0,0,1.66-.92l.42.13Zm.09,2.11a10.35,10.35,0,0,0-6.58,7.76,8.46,8.46,0,0,0,3.82-2.71,8.63,8.63,0,0,0,3.62-4.79Z"/><path class="cls-4" d="M175.11,125.49a5.32,5.32,0,0,1,1.41,1.16A3.23,3.23,0,0,1,176,128a3.46,3.46,0,0,1-.69,1.56l.16.45-.4.92.16.45a6,6,0,0,0,3.34-3.93l1.32-1.12,1.68.08a3.07,3.07,0,0,1-.32,3.51l.16.45a15.24,15.24,0,0,0,2.5-1.78l.46,0,1.32-1.12a6.68,6.68,0,0,0,.87-1.25,3.09,3.09,0,0,1,1.63-.53,2.43,2.43,0,0,1,1.25,1l0,1.07a5.43,5.43,0,0,0-.09,5l-.13.32a4.91,4.91,0,0,0,2.12.06,11,11,0,0,1,2.09-1.15q4.46-2.52,1.26,1.16l-.75.64-.59.34q-7.55,4.25-6.86-4.29l-.44,0q-6.18,5.11-8.25,2.62-4.39,3.68-5.5-.7a8.6,8.6,0,0,0,.81-2.76q0-.15.28-.33l-.16-.28a10.1,10.1,0,0,0,.68-1.85l-.17-.46Z"/><path class="cls-4" d="M208.52,122.49l.9.09a2.26,2.26,0,0,1,.8,1.13,8,8,0,0,1-.55,2.06l-.08.88-.27,1.18q-.56,2.31-1.17,4.59l-.53,2.55-.95,4.78-1.37,10.46q-.34,2.37-.57,3.73t-.52,3.46l-.24.76a1.3,1.3,0,0,1-1.3-1l.27-4,.36-3.59.13-1.54q.23-.79.92-5.34l.13-1.41.32-1.81q.15-1,1.34-6.54l.45-1.43.1-.51.1-.51a11.57,11.57,0,0,1,.67-2.58l0-.39.33-.91.33-1.35-.25-.14a29.77,29.77,0,0,0-6.07,4.79l-.11.27a8.37,8.37,0,0,1-2.85,2.16l-.11.25q-3.3.65-3.22-3.8a8.09,8.09,0,0,1-1.82,2.48l-.59,1A6.78,6.78,0,0,0,192,134l-.13.25a3.75,3.75,0,0,0-.86,1.06l-.87.16a1.78,1.78,0,0,1,0-1,10.36,10.36,0,0,0,.7-1.29l.37-.4,1.67-3,.11-.37,1-1.21.23-.4a7.08,7.08,0,0,1,.72-1.56L195,126a4.88,4.88,0,0,0,1.23-1.34l.22-.52a2.09,2.09,0,0,1,1.82.58,12.6,12.6,0,0,1-.66,2.82,4.79,4.79,0,0,1-.29,2.32l.3.89a2.74,2.74,0,0,0,1.62-.77l2.08-2,4.81-4.23.76-.4.23-.28,1.15-.43Z"/><path class="cls-4" d="M225.19,124.34l1.6-.06.34.62a5.15,5.15,0,0,1-1.08,2.25,9.87,9.87,0,0,0-.45,1.94l-.09.2-.3.33a3.66,3.66,0,0,1-.37,1.72,11.67,11.67,0,0,1-.33,1.91l-.07.63-.09.73-.24,1.81,0,.41-.08.54-.16,1.49-.07.54-.07.64-.26,1.47a7.64,7.64,0,0,0-.24,1.81l-.37,1.6-.07.76-.06.83a2.12,2.12,0,0,0-.18,1l-.2.42,0,.41-.18.33a3.48,3.48,0,0,1-.59,1.6l-.16.86q-4.21,6-6.7-4a14.74,14.74,0,0,0,.08-2.63,12.64,12.64,0,0,0,.45-2l.29-.55,1.69-5,.51-.65.8-1.3,1.13-.14a5.33,5.33,0,0,1-.42,2.13v.32a5.71,5.71,0,0,0-.87,2,5.83,5.83,0,0,0-.48,1.28l-.3.33-.27,1.18-.21.32a3.58,3.58,0,0,1-.26,1.4l-.07.73-.11.32a4.05,4.05,0,0,1-.15,1.17,16.85,16.85,0,0,0,.76,3.13l0,.41a5.32,5.32,0,0,0,1.43,1.74,9.66,9.66,0,0,0,1.85-4.09l.18-.22a13.86,13.86,0,0,1,.52-2.74l.1-.64,0-.44.21-.32.08-.42.15-1.71a4.55,4.55,0,0,0,.14-1.37l.1-.64c0-.42.08-.72.11-.9l.09-.59a5.81,5.81,0,0,1,.13-.64,9.81,9.81,0,0,0,0-1.48,3.17,3.17,0,0,0,.18-1l.19-.74,0-.63.8-3.63a4.11,4.11,0,0,1,.46-1.28l.24-1.81.29-.52,0-.63ZM228,113.6l2,2.13a12,12,0,0,0-.45,2.13l-.07.63-.1.42q-1.45.18-1.47-2.56a1.74,1.74,0,0,1-.78-1.35,1.84,1.84,0,0,1,.89-1.4m.1,0,1.74,1.6a1.54,1.54,0,0,0-1.74-1.6"/><path class="cls-4" d="M235.27,119.35q3.83-.3,4.52,3.63,2-3.34,3.4-.53a22.41,22.41,0,0,0-2,3.63,4.32,4.32,0,0,0-.91,1.66l.16.41a4.08,4.08,0,0,0,1.51.21l.93-.45a14.26,14.26,0,0,1,1.87-1.29l.92-.6,1.11-.85.75-.59c.33-.16.44,0,.32.56a4.25,4.25,0,0,1-1.46,1.94q-3.63,4.4-8.22,2.82-4.43,5.09-9.21,1.59-2.5-7.67,6.33-12.14m0,2.09q-5.49,3-5.17,7.89l-.1.51q2.9,3.87,7.17-1.8a.41.41,0,0,1,.1-.64,1.17,1.17,0,0,1-.88-.08q3.21-6.35-1.12-5.88"/><path class="cls-4" d="M249,111.91l2.11.62-.24,6.62-.15.54a9.63,9.63,0,0,1-.27,2.44l-.12,1.22.19.53q5.54-5.28,10.18-3l0,1.21a4,4,0,0,1-1.37.93,9.88,9.88,0,0,1-1.5,1.3l-1,1.08a4,4,0,0,0-1.38.74c-.56.49-1.18,1-1.86,1.48l-.84.72,2,1.16a10.43,10.43,0,0,0,3.65-.51l1.38-.23,4-1.21.7-.2,3,0a1.86,1.86,0,0,1-.3,1.06,14.83,14.83,0,0,1-3.79,1.2,20.68,20.68,0,0,1-10.19,2.17l-2.5-1.11-.53-.34a4.92,4.92,0,0,1-3.81.69,4.56,4.56,0,0,1,.08-2.09q1.29-2.34.56-3.52a20,20,0,0,0,.7-12.57,3.81,3.81,0,0,1,1.35-.93m7.71,10.81q-2.2.36-5.83,4.1,3.5-2.43,5.83-4.1"/><path class="cls-4" d="M274.29,119.94q3.49,1.58,1.28,4.49a9.82,9.82,0,0,1-5.58,4.92,6.36,6.36,0,0,1-6.09.25q-2.46-2.4.23-5.65a2.58,2.58,0,0,1,2.06.55,6.46,6.46,0,0,1-.52,2.67q1.63,1.8,3.44-.29a6.07,6.07,0,0,0,4.21-3.94l-1.1-.24-2.42,2.11-.76.52-.16.3-.46,0-.3.5a1.73,1.73,0,0,1-1-.28,10.09,10.09,0,0,1,6.95-5.92Z"/><path class="cls-4" d="M278,120q4.34-.18,4.36,3.22a5.81,5.81,0,0,1-2.43-.75l-.27.45a5.29,5.29,0,0,1,1.76,1.46l.42.28a8.78,8.78,0,0,1,2.07,1.91l1.31,1.06-.06,1.56q-1.87,3.06-5.72,2.2a6.82,6.82,0,0,1-3.48-5.52l.4-.28.58.41a8.13,8.13,0,0,0,3.12,3.25l.16.28.41-.16q3.25-.13-1.3-3.76Q273.5,121.48,278,120m5-11.8a2.54,2.54,0,0,1,1.76,1.34l-.52.87a11.09,11.09,0,0,1-.73,3l-.24,1.15a4.78,4.78,0,0,1-.23,1.54l0,.58-.23,1,0,.41a1.41,1.41,0,0,1-1.57-.35l.41-.74a5.73,5.73,0,0,1,.18-1.54,4.09,4.09,0,0,1,0-1.63,4,4,0,0,0,0-1.63l.28-.42-.33-.84.06-1.58,0-.41Z"/><path class="cls-4" d="M292.3,117.69q6.17.55.61,7.26l-1.27.37a6.78,6.78,0,0,1,1.13-3.77l-.36-1.13a7.18,7.18,0,0,0-4.69,4.08q-3.87,12.31,13.6-.24l.52.81a25.56,25.56,0,0,1-13.28,8,7.26,7.26,0,0,1-3-1.34l-.83-.6q-1.83-9.16,7.54-13.43m2.7-12.41,1.22,0a3.76,3.76,0,0,1,.37,1.83,12.29,12.29,0,0,0-1.45,4.94l-.72,2.56,0,.46-1.08.38a14.28,14.28,0,0,1,.27-5.89l-.11-.46a14,14,0,0,0,1-3.44Z"/><path class="cls-4" d="M305.51,127.85q1.49.28,1,2,.19,1.57-2,.76a5.12,5.12,0,0,1-.62-1.43,2.88,2.88,0,0,1,1.62-1.31m5.08-27.32a4.53,4.53,0,0,1,1.53.52,7.72,7.72,0,0,1-.65,2.64l-.19.54a1.25,1.25,0,0,1-.34,1l0,.57a3.29,3.29,0,0,0-.36,1.18l.18.36-.35.3a2.45,2.45,0,0,0-.26,1.22l-.18.66a11.84,11.84,0,0,0-.58,2.08l-.19.54-.63,3.57a14.89,14.89,0,0,0-.54,2.77l-.17.42.08.35a16.69,16.69,0,0,1-.6,2.2,8.5,8.5,0,0,1,.16,1.58,1.43,1.43,0,0,1,.12.82,2.2,2.2,0,0,1-1.83,1,2.59,2.59,0,0,1-.79-1.8,5.12,5.12,0,0,1,.56-1.06l.26-1.22.19-.78.28-.53,0-.66.17-.66,0-.34a9.21,9.21,0,0,0,.3-1.55l.07-.65c.09-.07.11-.22.05-.46a11.71,11.71,0,0,0,.64-2.54,5.24,5.24,0,0,0,.25-2.12,3.76,3.76,0,0,0,.63-1.39,4.9,4.9,0,0,1,.45-2l-.1-.23a6.61,6.61,0,0,0,.59-3l.31-.75a3.82,3.82,0,0,1,.21-1.81Z"/></g></g></g></svg>